<svg xmlns="http://www.w3.org/2000/svg" viewBox="0 0 800 420">
  <!-- Background -->
  <rect width="800" height="420" fill="#0f172a"/>
  
  <!-- Title -->
  <text x="400" y="35" text-anchor="middle" fill="#f8fafc" font-family="system-ui, sans-serif" font-size="22" font-weight="bold">Estrategias de Chunking</text>
  
  <!-- Original Document -->
  <rect x="30" y="65" width="200" height="130" rx="8" fill="#1e293b" stroke="#64748b" stroke-width="2"/>
  <text x="130" y="90" text-anchor="middle" fill="#94a3b8" font-family="system-ui, sans-serif" font-size="12" font-weight="bold">DOCUMENTO ORIGINAL</text>
  <rect x="45" y="105" width="170" height="10" rx="2" fill="#475569"/>
  <rect x="45" y="120" width="150" height="10" rx="2" fill="#475569"/>
  <rect x="45" y="135" width="170" height="10" rx="2" fill="#475569"/>
  <rect x="45" y="155" width="130" height="10" rx="2" fill="#475569"/>
  <rect x="45" y="170" width="160" height="10" rx="2" fill="#475569"/>
  
  <!-- Arrow -->
  <path d="M240 130 L280 130" stroke="#64748b" stroke-width="2" fill="none" marker-end="url(#arrow)"/>
  
  <!-- Fixed Size Chunking -->
  <rect x="300" y="65" width="140" height="150" rx="8" fill="#1e293b" stroke="#3b82f6" stroke-width="2"/>
  <text x="370" y="90" text-anchor="middle" fill="#93c5fd" font-family="system-ui, sans-serif" font-size="11" font-weight="bold">FIXED SIZE</text>
  
  <rect x="315" y="105" width="110" height="25" rx="4" fill="#3b82f640" stroke="#3b82f6" stroke-width="1"/>
  <text x="370" y="122" text-anchor="middle" fill="#e2e8f0" font-family="system-ui, sans-serif" font-size="9">Chunk 1 (500)</text>
  
  <rect x="315" y="135" width="110" height="25" rx="4" fill="#3b82f640" stroke="#3b82f6" stroke-width="1"/>
  <text x="370" y="152" text-anchor="middle" fill="#e2e8f0" font-family="system-ui, sans-serif" font-size="9">Chunk 2 (500)</text>
  
  <rect x="315" y="165" width="110" height="25" rx="4" fill="#3b82f640" stroke="#3b82f6" stroke-width="1"/>
  <text x="370" y="182" text-anchor="middle" fill="#e2e8f0" font-family="system-ui, sans-serif" font-size="9">Chunk 3 (500)</text>
  
  <text x="370" y="208" text-anchor="middle" fill="#6ee7b7" font-family="system-ui, sans-serif" font-size="9">✓ Simple</text>
  
  <!-- Semantic Chunking -->
  <rect x="460" y="65" width="140" height="150" rx="8" fill="#1e293b" stroke="#10b981" stroke-width="2"/>
  <text x="530" y="90" text-anchor="middle" fill="#6ee7b7" font-family="system-ui, sans-serif" font-size="11" font-weight="bold">SEMANTIC</text>
  
  <rect x="475" y="105" width="110" height="20" rx="4" fill="#10b98140" stroke="#10b981" stroke-width="1"/>
  <text x="530" y="119" text-anchor="middle" fill="#e2e8f0" font-family="system-ui, sans-serif" font-size="9">Tema A</text>
  
  <rect x="475" y="130" width="110" height="35" rx="4" fill="#10b98140" stroke="#10b981" stroke-width="1"/>
  <text x="530" y="152" text-anchor="middle" fill="#e2e8f0" font-family="system-ui, sans-serif" font-size="9">Tema B</text>
  
  <rect x="475" y="170" width="110" height="22" rx="4" fill="#10b98140" stroke="#10b981" stroke-width="1"/>
  <text x="530" y="185" text-anchor="middle" fill="#e2e8f0" font-family="system-ui, sans-serif" font-size="9">Tema C</text>
  
  <text x="530" y="208" text-anchor="middle" fill="#6ee7b7" font-family="system-ui, sans-serif" font-size="9">✓ Preserva contexto</text>
  
  <!-- Recursive Chunking -->
  <rect x="620" y="65" width="150" height="150" rx="8" fill="#1e293b" stroke="#8b5cf6" stroke-width="2"/>
  <text x="695" y="90" text-anchor="middle" fill="#c4b5fd" font-family="system-ui, sans-serif" font-size="11" font-weight="bold">RECURSIVE</text>
  
  <rect x="635" y="105" width="120" height="18" rx="4" fill="#8b5cf640" stroke="#8b5cf6" stroke-width="1"/>
  <text x="695" y="118" text-anchor="middle" fill="#e2e8f0" font-family="system-ui, sans-serif" font-size="8">Párrafo 1</text>
  
  <rect x="635" y="128" width="120" height="28" rx="4" fill="#8b5cf640" stroke="#8b5cf6" stroke-width="1"/>
  <text x="695" y="146" text-anchor="middle" fill="#e2e8f0" font-family="system-ui, sans-serif" font-size="8">Párrafo 2</text>
  
  <rect x="635" y="161" width="120" height="18" rx="4" fill="#8b5cf640" stroke="#8b5cf6" stroke-width="1"/>
  <text x="695" y="174" text-anchor="middle" fill="#e2e8f0" font-family="system-ui, sans-serif" font-size="8">Párrafo 3</text>
  
  <text x="695" y="200" text-anchor="middle" fill="#94a3b8" font-family="system-ui, sans-serif" font-size="8">\\n\\n → \\n → . → " "</text>
  
  <!-- Overlap Section -->
  <rect x="30" y="240" width="360" height="160" rx="8" fill="#1e293b" stroke="#f59e0b" stroke-width="2"/>
  <text x="210" y="268" text-anchor="middle" fill="#fcd34d" font-family="system-ui, sans-serif" font-size="14" font-weight="bold">CHUNK OVERLAP</text>
  
  <!-- Without Overlap -->
  <text x="50" y="295" fill="#94a3b8" font-family="system-ui, sans-serif" font-size="10">Sin Overlap:</text>
  <rect x="50" y="305" width="130" height="25" rx="4" fill="#ef444440" stroke="#ef4444" stroke-width="1"/>
  <rect x="180" y="305" width="130" height="25" rx="4" fill="#ef444440" stroke="#ef4444" stroke-width="1"/>
  <text x="175" y="322" text-anchor="middle" fill="#fca5a5" font-family="system-ui, sans-serif" font-size="9">❌ Contexto perdido</text>
  
  <!-- With Overlap -->
  <text x="50" y="355" fill="#94a3b8" font-family="system-ui, sans-serif" font-size="10">Con Overlap (50):</text>
  <rect x="50" y="365" width="150" height="25" rx="4" fill="#10b98140" stroke="#10b981" stroke-width="1"/>
  <rect x="160" y="365" width="150" height="25" rx="4" fill="#10b98140" stroke="#10b981" stroke-width="1"/>
  <rect x="160" y="365" width="40" height="25" rx="0" fill="#fcd34d40"/>
  <text x="180" y="382" text-anchor="middle" fill="#fcd34d" font-family="system-ui, sans-serif" font-size="8">overlap</text>
  
  <!-- Best Practices -->
  <rect x="410" y="240" width="360" height="160" rx="8" fill="#1e293b" stroke="#334155" stroke-width="1"/>
  <text x="590" y="268" text-anchor="middle" fill="#f8fafc" font-family="system-ui, sans-serif" font-size="14" font-weight="bold">Mejores Prácticas</text>
  
  <text x="430" y="295" fill="#94a3b8" font-family="system-ui, sans-serif" font-size="11">chunk_size:</text>
  <text x="520" y="295" fill="#e2e8f0" font-family="system-ui, sans-serif" font-size="11">200-1000 tokens</text>
  
  <text x="430" y="320" fill="#94a3b8" font-family="system-ui, sans-serif" font-size="11">overlap:</text>
  <text x="520" y="320" fill="#e2e8f0" font-family="system-ui, sans-serif" font-size="11">10-20% del chunk</text>
  
  <text x="430" y="345" fill="#94a3b8" font-family="system-ui, sans-serif" font-size="11">separators:</text>
  <text x="520" y="345" fill="#e2e8f0" font-family="system-ui, sans-serif" font-size="11">[\\n\\n, \\n, ., ,]</text>
  
  <text x="430" y="375" fill="#6ee7b7" font-family="system-ui, sans-serif" font-size="10">💡 Ajusta según tu contenido</text>
  <text x="430" y="392" fill="#6ee7b7" font-family="system-ui, sans-serif" font-size="10">💡 Evalúa retrieval quality</text>
  
  <!-- Arrow marker -->
  <defs>
    <marker id="arrow" markerWidth="10" markerHeight="7" refX="9" refY="3.5" orient="auto">
      <polygon points="0 0, 10 3.5, 0 7" fill="#64748b"/>
    </marker>
  </defs>
</svg>
